<svg xmlns="http://www.w3.org/2000/svg" viewBox="0 0 69.11 69.11"><g id="Ebene_2" data-name="Ebene 2"><g id="Ebene_1-2" data-name="Ebene 1"><rect width="69.11" height="69.11" style="fill:#c44c4f"/><path d="M23.65,15V20.3H48.81V61.62a2.68,2.68,0,0,0,5.35,0V15Z" style="fill:#fff"/><path d="M11.59,15H7.49a2.68,2.68,0,0,0,0,5.35h4.1Z" style="fill:#fff"/><path d="M45.46,48.81H20.3V7.49a2.68,2.68,0,0,0-5.35,0V54.17H45.46Z" style="fill:#fff"/><path d="M61.62,48.81h-4.1v5.36h4.1a2.68,2.68,0,0,0,0-5.36Z" style="fill:#fff"/><path d="M34.54,31.58a3,3,0,1,0,3,3A3,3,0,0,0,34.54,31.58Zm8,3.11a3.05,3.05,0,0,1-.1,1l2.2,1.73c.19.19.28.45.1.64L42.66,41.7a.52.52,0,0,1-.64.19L39.37,40.8a6.86,6.86,0,0,1-1.82,1l-.36,2.84a.51.51,0,0,1-.55.45H32.36a.58.58,0,0,1-.55-.45L31.53,42a13.11,13.11,0,0,1-1.82-1l-2.65,1.09a.51.51,0,0,1-.64-.19l-2.11-3.65c-.09-.19-.09-.54.09-.64l2.28-1.73c0-.36-.09-.73-.09-1a3.37,3.37,0,0,1,.09-1L24.4,32.15c-.18-.19-.28-.45-.09-.64l2.11-3.65a.51.51,0,0,1,.64-.19l2.65,1.09a6.7,6.7,0,0,1,1.82-1l.36-3.29a.5.5,0,0,1,.54-.45h4.29a.56.56,0,0,1,.54.45l.36,2.84a13.84,13.84,0,0,1,1.83,1l2.65-1.09a.52.52,0,0,1,.64.19l2.1,3.65c.09.19.09.54-.09.64l-2.28,1.73C42.49,34,42.57,34.31,42.57,34.69Z" style="fill:#fff;opacity:0.5"/></g></g></svg>
